<?xml version="1.0" encoding="UTF-8" standalone="no"?>
<svg
   xmlns:dc="http://purl.org/dc/elements/1.1/"
   xmlns:cc="http://creativecommons.org/ns#"
   xmlns:rdf="http://www.w3.org/1999/02/22-rdf-syntax-ns#"
   xmlns:svg="http://www.w3.org/2000/svg"
   xmlns="http://www.w3.org/2000/svg"
   xmlns:sodipodi="http://sodipodi.sourceforge.net/DTD/sodipodi-0.dtd"
   xmlns:inkscape="http://www.inkscape.org/namespaces/inkscape"
   height="512pt"
   viewBox="-43 0 512 512"
   width="512pt"
   version="1.1"
   id="svg36"
   sodipodi:docname="checklist.svg"
   inkscape:version="0.92.4 (5da689c313, 2019-01-14)">
  <metadata
     id="metadata42">
    <rdf:RDF>
      <cc:Work
         rdf:about="">
        <dc:format>image/svg+xml</dc:format>
        <dc:type
           rdf:resource="http://purl.org/dc/dcmitype/StillImage" />
      </cc:Work>
    </rdf:RDF>
  </metadata>
  <defs
     id="defs40" />
  <sodipodi:namedview
     pagecolor="#ffffff"
     bordercolor="#666666"
     borderopacity="1"
     objecttolerance="10"
     gridtolerance="10"
     guidetolerance="10"
     inkscape:pageopacity="0"
     inkscape:pageshadow="2"
     inkscape:window-width="768"
     inkscape:window-height="480"
     id="namedview38"
     showgrid="false"
     inkscape:zoom="0.34570313"
     inkscape:cx="37.60452"
     inkscape:cy="341.33333"
     inkscape:window-x="0"
     inkscape:window-y="0"
     inkscape:window-maximized="0"
     inkscape:current-layer="svg36" />
  <path
     d="m25.601562 512h324.265626c14.136718 0 25.597656-11.460938 25.597656-25.601562v-401.066407h34.136718c9.425782 0 17.066407-7.640625 17.066407-17.066406v-25.597656c-.03125-23.554688-19.117188-42.6406252-42.667969-42.667969h-358.398438c-14.140624 0-25.601562 11.460938-25.601562 25.601562v460.796876c0 14.140624 11.460938 25.601562 25.601562 25.601562zm358.398438-494.933594c14.136719 0 25.601562 11.460938 25.601562 25.601563v25.597656h-341.335937v-25.597656c-.03125-9.265625-3.105469-18.257813-8.753906-25.601563zm-366.933594 8.535156c0-4.714843 3.820313-8.535156 8.535156-8.535156 14.136719 0 25.597657 11.460938 25.597657 25.601563v25.597656c0 9.425781 7.640625 17.066406 17.066406 17.066406h290.132813v401.066407c0 4.714843-3.820313 8.535156-8.53125 8.535156h-324.265626c-4.714843 0-8.535156-3.820313-8.535156-8.535156zm0 0"
     id="path2"
     style="fill:#ffffff" />
  <path
     d="m68.265625 213.332031h51.199219c9.425781 0 17.070312-7.640625 17.070312-17.066406v-8.53125c0-4.714844-3.824218-8.535156-8.535156-8.535156s-8.535156 3.820312-8.535156 8.535156v8.53125h-51.199219v-51.199219h25.601563c4.710937 0 8.53125-3.820312 8.53125-8.53125 0-4.714844-3.820313-8.535156-8.53125-8.535156h-25.601563c-9.425781 0-17.066406 7.640625-17.066406 17.066406v51.199219c0 9.425781 7.640625 17.066406 17.066406 17.066406zm0 0"
     id="path4"
     style="fill:#ffffff" />
  <path
     d="m68.265625 332.800781h51.199219c9.425781 0 17.070312-7.640625 17.070312-17.066406v-51.199219c0-9.425781-7.644531-17.070312-17.070312-17.070312h-51.199219c-9.425781 0-17.066406 7.644531-17.066406 17.070312v51.199219c0 9.425781 7.640625 17.066406 17.066406 17.066406zm0-68.265625h51.199219v51.199219h-51.199219zm0 0"
     id="path6"
     style="fill:#ffffff" />
  <path
     d="m68.265625 452.265625h51.199219c9.425781 0 17.070312-7.640625 17.070312-17.066406v-51.199219c0-9.425781-7.644531-17.066406-17.070312-17.066406h-51.199219c-9.425781 0-17.066406 7.640625-17.066406 17.066406v51.199219c0 9.425781 7.640625 17.066406 17.066406 17.066406zm0-68.265625h51.199219v51.199219h-51.199219zm0 0"
     id="path8"
     style="fill:#ffffff" />
  <path
     d="m170.667969 162.132812h42.664062c4.714844 0 8.535157-3.820312 8.535157-8.53125 0-4.714843-3.820313-8.535156-8.535157-8.535156h-42.664062c-4.714844 0-8.535157 3.820313-8.535157 8.535156 0 4.710938 3.820313 8.53125 8.535157 8.53125zm0 0"
     id="path10"
     style="fill:#ffffff" />
  <path
     d="m247.464844 162.132812h85.335937c4.710938 0 8.53125-3.820312 8.53125-8.53125 0-4.714843-3.820312-8.535156-8.53125-8.535156h-85.335937c-4.710938 0-8.53125 3.820313-8.53125 8.535156 0 4.710938 3.820312 8.53125 8.53125 8.53125zm0 0"
     id="path12"
     style="fill:#ffffff" />
  <path
     d="m170.667969 196.265625h85.332031c4.710938 0 8.535156-3.820313 8.535156-8.53125 0-4.714844-3.824218-8.535156-8.535156-8.535156h-85.332031c-4.714844 0-8.535157 3.820312-8.535157 8.535156 0 4.710937 3.820313 8.53125 8.535157 8.53125zm0 0"
     id="path14"
     style="fill:#ffffff" />
  <path
     d="m332.800781 179.199219h-42.667969c-4.710937 0-8.53125 3.820312-8.53125 8.535156 0 4.710937 3.820313 8.53125 8.53125 8.53125h42.667969c4.710938 0 8.53125-3.820313 8.53125-8.53125 0-4.714844-3.820312-8.535156-8.53125-8.535156zm0 0"
     id="path16"
     style="fill:#ffffff" />
  <path
     d="m170.667969 281.601562h42.664062c4.714844 0 8.535157-3.820312 8.535157-8.535156 0-4.710937-3.820313-8.53125-8.535157-8.53125h-42.664062c-4.714844 0-8.535157 3.820313-8.535157 8.53125 0 4.714844 3.820313 8.535156 8.535157 8.535156zm0 0"
     id="path18"
     style="fill:#ffffff" />
  <path
     d="m332.800781 264.535156h-85.335937c-4.710938 0-8.53125 3.820313-8.53125 8.53125 0 4.714844 3.820312 8.535156 8.53125 8.535156h85.335937c4.710938 0 8.53125-3.820312 8.53125-8.535156 0-4.710937-3.820312-8.53125-8.53125-8.53125zm0 0"
     id="path20"
     style="fill:#ffffff" />
  <path
     d="m170.667969 315.734375h85.332031c4.710938 0 8.535156-3.820313 8.535156-8.535156 0-4.710938-3.824218-8.53125-8.535156-8.53125h-85.332031c-4.714844 0-8.535157 3.820312-8.535157 8.53125 0 4.714843 3.820313 8.535156 8.535157 8.535156zm0 0"
     id="path22"
     style="fill:#ffffff" />
  <path
     d="m332.800781 298.667969h-42.667969c-4.710937 0-8.53125 3.820312-8.53125 8.53125 0 4.714843 3.820313 8.535156 8.53125 8.535156h42.667969c4.710938 0 8.53125-3.820313 8.53125-8.535156 0-4.710938-3.820312-8.53125-8.53125-8.53125zm0 0"
     id="path24"
     style="fill:#ffffff" />
  <path
     d="m170.667969 401.066406h42.664062c4.714844 0 8.535157-3.820312 8.535157-8.53125 0-4.714844-3.820313-8.535156-8.535157-8.535156h-42.664062c-4.714844 0-8.535157 3.820312-8.535157 8.535156 0 4.710938 3.820313 8.53125 8.535157 8.53125zm0 0"
     id="path26"
     style="fill:#ffffff" />
  <path
     d="m332.800781 384h-85.335937c-4.710938 0-8.53125 3.820312-8.53125 8.535156 0 4.710938 3.820312 8.53125 8.53125 8.53125h85.335937c4.710938 0 8.53125-3.820312 8.53125-8.53125 0-4.714844-3.820312-8.535156-8.53125-8.535156zm0 0"
     id="path28"
     style="fill:#ffffff" />
  <path
     d="m170.667969 435.199219h85.332031c4.710938 0 8.535156-3.820313 8.535156-8.53125 0-4.714844-3.824218-8.535157-8.535156-8.535157h-85.332031c-4.714844 0-8.535157 3.820313-8.535157 8.535157 0 4.710937 3.820313 8.53125 8.535157 8.53125zm0 0"
     id="path30"
     style="fill:#ffffff" />
  <path
     d="m332.800781 418.132812h-42.667969c-4.710937 0-8.53125 3.820313-8.53125 8.535157 0 4.710937 3.820313 8.53125 8.53125 8.53125h42.667969c4.710938 0 8.53125-3.820313 8.53125-8.53125 0-4.714844-3.820312-8.535157-8.53125-8.535157zm0 0"
     id="path32"
     style="fill:#ffffff" />
  <path
     d="m91.367188 156.101562c-3.347657-3.234374-8.671876-3.1875-11.964844.101563-3.289063 3.292969-3.335938 8.613281-.101563 11.964844l17.066407 17.066406c1.601562 1.597656 3.769531 2.5 6.03125 2.5h.710937c2.5-.210937 4.78125-1.507813 6.238281-3.550781l42.664063-59.734375c1.773437-2.480469 2.085937-5.71875.820312-8.492188-1.261719-2.777343-3.910156-4.667969-6.945312-4.960937-3.035157-.292969-5.996094 1.058594-7.765625 3.539062l-36.804688 51.53125zm0 0"
     id="path34"
     style="fill:#ffffff" />
</svg>
